<svg xmlns="http://www.w3.org/2000/svg" width="17.349" height="31.102" viewBox="0 0 17.349 31.102">
  <g id="Grupo_156" data-name="Grupo 156" transform="translate(-1127.229 -568.251)">
    <g id="Grupo_118" data-name="Grupo 118" transform="translate(1130.169 568.251)">
      <path id="Caminho_254" data-name="Caminho 254" d="M1196.855,583.485a.02.02,0,0,1-.013,0,.021.021,0,0,1,0-.03l11.587-15.192a.021.021,0,1,1,.034.026l-11.587,15.192A.021.021,0,0,1,1196.855,583.485Z" transform="translate(-1196.834 -568.251)" fill="#685849"/>
    </g>
    <g id="Grupo_119" data-name="Grupo 119" transform="translate(1132.029 569.937)">
      <path id="Caminho_255" data-name="Caminho 255" d="M1251.232,616.071a.021.021,0,0,1-.013,0l-10.355-7.867a.021.021,0,1,1,.026-.034l10.355,7.867a.021.021,0,0,1-.013.038Z" transform="translate(-1240.856 -608.162)" fill="#685849"/>
    </g>
    <g id="Grupo_120" data-name="Grupo 120" transform="translate(1130.345 568.584)">
      <path id="Caminho_256" data-name="Caminho 256" d="M1212.194,576.132l-9.256,1.555-1.932,13.08,11.849-5.549Z" transform="translate(-1201.006 -576.132)" fill="#dc7901"/>
    </g>
    <g id="Grupo_121" data-name="Grupo 121" transform="translate(1137.566 568.584)" opacity="0.5" style="mix-blend-mode: multiply;isolation: isolate">
      <path id="Caminho_257" data-name="Caminho 257" d="M1375.919,576.132l-3.967,5.568,4.629,3.518Z" transform="translate(-1371.952 -576.132)" fill="#a10e2f"/>
    </g>
    <g id="Grupo_122" data-name="Grupo 122" transform="translate(1130.345 570.139)" opacity="0.5">
      <path id="Caminho_258" data-name="Caminho 258" d="M1208.227,616.964l-5.289-4.013-1.932,13.08Z" transform="translate(-1201.006 -612.951)" fill="#fbb92d"/>
    </g>
    <g id="Grupo_125" data-name="Grupo 125" transform="translate(1128.009 584.818)">
      <g id="Grupo_123" data-name="Grupo 123" transform="translate(0 0)">
        <path id="Caminho_259" data-name="Caminho 259" d="M1146.96,961.672l-.83-1.21-.442,1.772Z" transform="translate(-1145.688 -960.461)" fill="#e65e09"/>
      </g>
      <g id="Grupo_124" data-name="Grupo 124" transform="translate(1.272 0.629)">
        <path id="Caminho_260" data-name="Caminho 260" d="M1175.808,975.943l1.013,1.151.317-1.731Z" transform="translate(-1175.808 -975.362)" fill="#f59a00"/>
      </g>
    </g>
    <g id="Grupo_128" data-name="Grupo 128" transform="translate(1127.229 589.52)">
      <g id="Grupo_126" data-name="Grupo 126" transform="translate(0 0.612)">
        <path id="Caminho_261" data-name="Caminho 261" d="M1128.575,1086.845l-1.345-.586.565,1.737Z" transform="translate(-1127.229 -1086.259)" fill="#e65e09"/>
      </g>
      <g id="Grupo_127" data-name="Grupo 127" transform="translate(1.346 0)">
        <path id="Caminho_262" data-name="Caminho 262" d="M1159.084,1072.97l1.469.438-.65-1.636Z" transform="translate(-1159.084 -1071.773)" fill="#f59a00"/>
      </g>
    </g>
    <g id="Grupo_131" data-name="Grupo 131" transform="translate(1130.201 593.014)">
      <g id="Grupo_129" data-name="Grupo 129" transform="translate(0 1.317)">
        <path id="Caminho_263" data-name="Caminho 263" d="M1198.769,1185.656l-1.192.856,1.782.4Z" transform="translate(-1197.577 -1185.656)" fill="#e65e09"/>
      </g>
      <g id="Grupo_130" data-name="Grupo 130" transform="translate(0.582 0)">
        <path id="Caminho_264" data-name="Caminho 264" d="M1211.976,1155.8l1.128-1.038-1.738-.279Z" transform="translate(-1211.366 -1154.482)" fill="#f59a00"/>
      </g>
    </g>
    <g id="Grupo_134" data-name="Grupo 134" transform="translate(1133.682 590.153)">
      <g id="Grupo_132" data-name="Grupo 132" transform="translate(1.44 1.506)">
        <path id="Caminho_265" data-name="Caminho 265" d="M1314.1,1122.423l.1,1.464,1.282-1.3Z" transform="translate(-1314.096 -1122.423)" fill="#e65e09"/>
      </g>
      <g id="Grupo_133" data-name="Grupo 133" transform="translate(0 0)">
        <path id="Caminho_266" data-name="Caminho 266" d="M1281.44,1088.277l-.287-1.506L1280,1088.1Z" transform="translate(-1280 -1086.771)" fill="#f59a00"/>
      </g>
    </g>
    <g id="Grupo_137" data-name="Grupo 137" transform="translate(1135.771 585.701)">
      <g id="Grupo_135" data-name="Grupo 135" transform="translate(1.44 1.506)">
        <path id="Caminho_267" data-name="Caminho 267" d="M1363.544,1017.018l.1,1.464,1.283-1.3Z" transform="translate(-1363.544 -1017.018)" fill="#e65e09"/>
      </g>
      <g id="Grupo_136" data-name="Grupo 136" transform="translate(0)">
        <path id="Caminho_268" data-name="Caminho 268" d="M1330.888,982.872l-.287-1.506-1.153,1.329Z" transform="translate(-1329.447 -981.366)" fill="#f59a00"/>
      </g>
    </g>
    <g id="Grupo_140" data-name="Grupo 140" transform="translate(1139.915 583.294)">
      <g id="Grupo_138" data-name="Grupo 138" transform="translate(0.312 1.091)">
        <path id="Caminho_269" data-name="Caminho 269" d="M1435.49,950.212l-.544.986,1.368-.307Z" transform="translate(-1434.945 -950.212)" fill="#e65e09"/>
      </g>
      <g id="Grupo_139" data-name="Grupo 139" transform="translate(0 0)">
        <path id="Caminho_270" data-name="Caminho 270" d="M1428.415,925.469l.441-1.091-1.3.379Z" transform="translate(-1427.559 -924.378)" fill="#f59a00"/>
      </g>
    </g>
    <g id="Grupo_143" data-name="Grupo 143" transform="translate(1142.352 585.677)">
      <g id="Grupo_141" data-name="Grupo 141" transform="translate(0 0.626)">
        <path id="Caminho_271" data-name="Caminho 271" d="M1486.325,995.976l-1.071-.349.559,1.286Z" transform="translate(-1485.254 -995.627)" fill="#e65e09"/>
      </g>
      <g id="Grupo_142" data-name="Grupo 142" transform="translate(1.071 0)">
        <path id="Caminho_272" data-name="Caminho 272" d="M1510.612,981.771l1.155.227-.617-1.2Z" transform="translate(-1510.612 -980.796)" fill="#f59a00"/>
      </g>
    </g>
    <g id="Grupo_146" data-name="Grupo 146" transform="translate(1141.934 589.351)">
      <g id="Grupo_144" data-name="Grupo 144" transform="translate(0)">
        <path id="Caminho_273" data-name="Caminho 273" d="M1476.357,1068.743l-.567-.973-.439,1.332Z" transform="translate(-1475.352 -1067.77)" fill="#e65e09"/>
      </g>
      <g id="Grupo_145" data-name="Grupo 145" transform="translate(1.006 0.604)">
        <path id="Caminho_274" data-name="Caminho 274" d="M1499.163,1082.438l.71.938.34-1.308Z" transform="translate(-1499.163 -1082.069)" fill="#f59a00"/>
      </g>
    </g>
    <g id="Grupo_150" data-name="Grupo 150" transform="translate(1132.246 570.108)">
      <g id="Grupo_147" data-name="Grupo 147" transform="translate(0 0)">
        <path id="Caminho_275" data-name="Caminho 275" d="M1250.866,619.95a.032.032,0,0,1-.027-.015L1246,612.249a.032.032,0,0,1,.054-.034l4.836,7.686a.032.032,0,0,1-.027.049Z" transform="translate(-1245.998 -612.2)" fill="#898989"/>
      </g>
      <g id="Grupo_148" data-name="Grupo 148" transform="translate(4.836 7.686)">
        <path id="Caminho_276" data-name="Caminho 276" d="M1367.886,815.724a.032.032,0,0,1-.03-.021l-7.364-21.5a.032.032,0,0,1,.06-.021l7.364,21.5a.032.032,0,0,1-.02.04Z" transform="translate(-1360.49 -794.165)" fill="#898989"/>
      </g>
      <g id="Grupo_149" data-name="Grupo 149" transform="translate(4.836 7.531)">
        <path id="Caminho_277" data-name="Caminho 277" d="M1360.522,790.709a.032.032,0,0,1,0-.063l5.081-.155h0a.032.032,0,0,1,0,.063l-5.081.155Z" transform="translate(-1360.491 -790.49)" fill="#898989"/>
      </g>
    </g>
    <g id="Grupo_154" data-name="Grupo 154" transform="translate(1132.246 570.108)">
      <g id="Grupo_151" data-name="Grupo 151" transform="translate(0 0)" opacity="0.4" style="mix-blend-mode: multiply;isolation: isolate">
        <path id="Caminho_278" data-name="Caminho 278" d="M1250.822,620.963a.032.032,0,0,1-.028-.016l-4.792-8.7a.032.032,0,1,1,.056-.031l4.792,8.7a.032.032,0,0,1-.028.047Z" transform="translate(-1245.998 -612.202)" fill="#c6bd9e"/>
      </g>
      <g id="Grupo_152" data-name="Grupo 152" transform="translate(4.792 8.698)" opacity="0.4" style="mix-blend-mode: multiply;isolation: isolate">
        <path id="Caminho_279" data-name="Caminho 279" d="M1359.846,819.239a.032.032,0,0,1-.03-.021l-.364-1.063a.032.032,0,0,1,.06-.02l.364,1.063a.032.032,0,0,1-.02.04Z" transform="translate(-1359.451 -818.112)" fill="#c6bd9e"/>
      </g>
      <g id="Grupo_153" data-name="Grupo 153" transform="translate(4.792 7.531)" opacity="0.4" style="mix-blend-mode: multiply;isolation: isolate">
        <path id="Caminho_280" data-name="Caminho 280" d="M1359.483,791.721a.032.032,0,0,1-.007-.063l5.125-1.167a.032.032,0,0,1,.014.062l-5.125,1.167Z" transform="translate(-1359.451 -790.491)" fill="#c6bd9e"/>
      </g>
    </g>
    <g id="Grupo_155" data-name="Grupo 155" transform="translate(1128.565 583.188)">
      <path id="Caminho_281" data-name="Caminho 281" d="M1162.184,933.009a2.552,2.552,0,0,1-1.379-.439,4.1,4.1,0,0,1-1.826-2.822,9.182,9.182,0,0,1,.137-3.546,19.664,19.664,0,0,1,1.5-4.321.032.032,0,1,1,.057.029,19.576,19.576,0,0,0-1.494,4.306,9.117,9.117,0,0,0-.137,3.521,4.042,4.042,0,0,0,1.8,2.78,2.29,2.29,0,0,0,2.1.293c2.382-.868,3.9-5.621,3.915-5.669.009-.029.932-2.929,2.842-3.831a2.875,2.875,0,0,1,2.4-.016c3.123,1.272,1.416,5.492.4,8.014-.152.376-.283.7-.385.981a.032.032,0,0,1-.06-.022c.1-.282.234-.607.386-.983,1.012-2.5,2.7-6.684-.36-7.931a2.815,2.815,0,0,0-2.344.015c-1.885.89-2.8,3.763-2.809,3.792a17.735,17.735,0,0,1-1.06,2.518c-.623,1.2-1.631,2.731-2.893,3.191A2.244,2.244,0,0,1,1162.184,933.009Z" transform="translate(-1158.863 -921.864)" fill="#f59a00"/>
    </g>
  </g>
</svg>
