<svg xmlns="http://www.w3.org/2000/svg" width="35.38" height="9.576" viewBox="0 0 35.38 9.576">
  <path id="Caminho_253" data-name="Caminho 253" d="M568.558,417.865H534.43a.626.626,0,0,0-.626.626v8.325a.626.626,0,0,0,.626.626h34.128a.626.626,0,0,0,.626-.626v-8.325A.626.626,0,0,0,568.558,417.865ZM536.148,419.1a.289.289,0,1,1-.289.289A.289.289,0,0,1,536.148,419.1Zm0,.813a.289.289,0,1,1-.289.289A.289.289,0,0,1,536.148,419.912Zm30.317,6.212H536.272a.413.413,0,1,1,0-.826h30.193a.413.413,0,1,1,0,.826Zm0-1.735H536.272a.413.413,0,1,1,0-.827h30.193a.413.413,0,1,1,0,.827Z" transform="translate(-533.804 -417.865)" fill="#24b1e2"/>
</svg>
