<svg xmlns="http://www.w3.org/2000/svg" width="41" height="36.384" viewBox="0 0 41 36.384">
  <g id="Grupo_17" data-name="Grupo 17" transform="translate(-732.926 -212.312)">
    <rect id="Retângulo_64" data-name="Retângulo 64" width="4.793" height="36.384" transform="translate(758.929 212.312)" fill="#fff"/>
    <rect id="Retângulo_65" data-name="Retângulo 65" width="1.535" height="36.384" transform="translate(754.326 212.312)" fill="#fff"/>
    <rect id="Retângulo_66" data-name="Retângulo 66" width="0.887" height="36.384" transform="translate(732.926 212.312)" fill="#fff"/>
    <rect id="Retângulo_67" data-name="Retângulo 67" width="1.902" height="36.384" transform="translate(743.761 212.312)" fill="#fff"/>
    <rect id="Retângulo_68" data-name="Retângulo 68" width="1.397" height="36.384" transform="translate(752.041 212.312)" fill="#fff"/>
    <rect id="Retângulo_69" data-name="Retângulo 69" width="1.775" height="36.384" transform="translate(739.727 212.312)" fill="#fff"/>
    <rect id="Retângulo_70" data-name="Retângulo 70" width="1.035" height="36.384" transform="translate(747.438 212.312)" fill="#fff"/>
    <rect id="Retângulo_71" data-name="Retângulo 71" width="1.397" height="36.384" transform="translate(764.61 212.312)" fill="#fff"/>
    <rect id="Retângulo_72" data-name="Retângulo 72" width="0.444" height="36.384" transform="translate(737.729 212.312)" fill="#fff"/>
    <rect id="Retângulo_73" data-name="Retângulo 73" width="0.762" height="36.384" transform="translate(769.178 212.312)" fill="#fff"/>
    <rect id="Retângulo_74" data-name="Retângulo 74" width="1.397" height="36.384" transform="translate(734.969 212.312)" fill="#fff"/>
    <rect id="Retângulo_75" data-name="Retângulo 75" width="0.444" height="36.384" transform="translate(750.479 212.312)" fill="#fff"/>
    <rect id="Retângulo_76" data-name="Retângulo 76" width="0.917" height="36.384" transform="translate(773.008 212.312)" fill="#fff"/>
    <rect id="Retângulo_77" data-name="Retângulo 77" width="0.887" height="36.384" transform="translate(767.148 212.312)" fill="#fff"/>
  </g>
</svg>
