<svg id="Grupo_32" data-name="Grupo 32" xmlns="http://www.w3.org/2000/svg" width="39.474" height="39.051" viewBox="0 0 39.474 39.051">
  <path id="Caminho_99" data-name="Caminho 99" d="M534.382,179.431l-4.677.143-4.677-.143c-6.193,2.106-15.06,2.456-15.06,10.069,0,1.3,10.219,3.239,19.737,3.239s19.737-1.936,19.737-3.239C549.442,181.887,540.575,181.537,534.382,179.431Z" transform="translate(-509.968 -153.688)" fill="#525b66"/>
  <path id="Caminho_100" data-name="Caminho 100" d="M545.086,176.7l-.683-3.846h-7.987l-.683,3.846c-.075.234,1,2.921,4.677,2.921S545.161,176.931,545.086,176.7Z" transform="translate(-520.672 -150.953)" fill="#e8b599"/>
  <path id="Caminho_101" data-name="Caminho 101" d="M546.548,150.777a9.732,9.732,0,1,1-9.727-10.04A9.887,9.887,0,0,1,546.548,150.777Z" transform="translate(-517.084 -137.609)" fill="#f2c6ad"/>
  <path id="Caminho_102" data-name="Caminho 102" d="M545.1,137.256c-1.21-1.23-5.184-1.871-8.152-1.871s-6.941.641-8.151,1.871c-.919.935-1.169,2.665-1.4,9.45,0,0,5.027.552,9.546.552s9.546-.552,9.546-.552C546.271,139.921,546.021,138.191,545.1,137.256Z" transform="translate(-517.213 -135.385)" fill="#fc8a1f"/>
  <path id="Caminho_103" data-name="Caminho 103" d="M560.633,181.929c-.887-.25-1.791-.482-2.686-.714v6.713h2.686Z" transform="translate(-529.905 -154.429)" fill="#fc8a1f"/>
  <path id="Caminho_104" data-name="Caminho 104" d="M524.933,181.929c.887-.25,1.791-.482,2.685-.714v6.713h-2.685Z" transform="translate(-516.186 -154.429)" fill="#fc8a1f"/>
  <path id="Caminho_105" data-name="Caminho 105" d="M546.656,190.815a81.323,81.323,0,0,1-25.62,0l-1.1,5.438a80.211,80.211,0,0,0,27.824,0Z" transform="translate(-514.109 -158.418)" fill="#fc8a1f"/>
  <g id="Grupo_31" data-name="Grupo 31" transform="translate(13.931 17.082)">
    <path id="Caminho_106" data-name="Caminho 106" d="M549.539,167.244c.125-.252-4.42-3.036-5.206-2.582a1.292,1.292,0,0,0,0,2.181C545.178,167.351,549.4,167.526,549.539,167.244Z" transform="translate(-537.93 -164.612)" fill="#525b66"/>
    <path id="Caminho_107" data-name="Caminho 107" d="M533.806,167.244c-.125-.252,4.42-3.036,5.206-2.582a1.292,1.292,0,0,1,0,2.181C538.168,167.351,533.947,167.526,533.806,167.244Z" transform="translate(-533.804 -164.612)" fill="#525b66"/>
  </g>
  <path id="Caminho_108" data-name="Caminho 108" d="M541.871,139.412l-1.246,3.5H542.2l-.919,3.663,2.9-4.354h-1.511l1.593-2.812Z" transform="translate(-522.707 -137.058)" fill="#fff"/>
  <path id="Caminho_109" data-name="Caminho 109" d="M536.938,153.162a52.714,52.714,0,0,0-9.562.887s.941,1.1,2.493,2.676c.914.93,2.631-.253,7.068-.253v-.007l0,.007c4.437,0,6.154,1.182,7.068.253,1.552-1.579,2.494-2.676,2.494-2.676A52.725,52.725,0,0,0,536.938,153.162Z" transform="translate(-517.202 -142.772)" fill="#fca757"/>
</svg>
