<svg xmlns="http://www.w3.org/2000/svg" width="27.652" height="21.54" viewBox="0 0 27.652 21.54">
  <g id="Grupo_60" data-name="Grupo 60" transform="translate(0)">
    <g id="Grupo_55" data-name="Grupo 55">
      <g id="Grupo_52" data-name="Grupo 52" transform="translate(1.815)">
        <path id="Caminho_149" data-name="Caminho 149" d="M140.6,149.192a5.841,5.841,0,0,1,.854.024,3.655,3.655,0,0,1,3.233-2.116,4.09,4.09,0,0,1,.487.011,3.284,3.284,0,0,1,6.431-.524,3.275,3.275,0,0,1,4.224,2.674,3.288,3.288,0,1,1,1.877,6.079,3.342,3.342,0,0,1-.488-.019,3.285,3.285,0,0,1-4.289,2.044,5.635,5.635,0,0,1-3.84,1.569c-2.158.1-4.023-.812-4.671-2.142a3.282,3.282,0,0,1-5.066-1.168c-1.693-.391-3-.98-3-2.955C136.354,150.854,138.176,149.3,140.6,149.192Z" transform="translate(-136.354 -143.922)" fill="#1a485e"/>
        <path id="Caminho_150" data-name="Caminho 150" d="M140.6,148.369a5.882,5.882,0,0,1,.854.024,3.657,3.657,0,0,1,3.233-2.116,4.229,4.229,0,0,1,.487.011,3.284,3.284,0,0,1,6.431-.524,3.275,3.275,0,0,1,4.224,2.673,3.288,3.288,0,1,1,1.877,6.079,3.342,3.342,0,0,1-.488-.019,3.284,3.284,0,0,1-4.289,2.044,5.636,5.636,0,0,1-3.84,1.569c-2.158.1-4.023-.813-4.671-2.142a3.283,3.283,0,0,1-5.066-1.168c-1.693-.391-3-.98-3-2.955C136.354,150.032,138.176,148.476,140.6,148.369Z" transform="translate(-136.354 -143.355)" fill="#276c8d"/>
        <path id="Caminho_151" data-name="Caminho 151" d="M148.6,150.992a60.929,60.929,0,0,1,12.127,1.122,3.287,3.287,0,0,0-4.9-3.676,3.275,3.275,0,0,0-4.224-2.673,3.284,3.284,0,0,0-6.431.524,4.229,4.229,0,0,0-.487-.011,3.657,3.657,0,0,0-3.233,2.116,5.882,5.882,0,0,0-.854-.024c-2.426.107-4.248,1.663-4.248,3.478,0,.1.006.2.012.291A60.657,60.657,0,0,1,148.6,150.992Z" transform="translate(-136.354 -143.355)" fill="#7f8c8d" opacity="0.15" style="mix-blend-mode: screen;isolation: isolate"/>
      </g>
      <g id="Grupo_53" data-name="Grupo 53" transform="translate(19.356 0.951)">
        <path id="Caminho_152" data-name="Caminho 152" d="M195.155,155.558a1.886,1.886,0,0,0,2.669-1.293,1.894,1.894,0,1,0,1.969-3.08,2.187,2.187,0,0,0-2.729-3.4,1.872,1.872,0,0,0-.488-.339,1.893,1.893,0,0,0-2.239,2.961,1.892,1.892,0,0,0-.448,3.559,2.11,2.11,0,0,0,.207.084A1.89,1.89,0,0,0,195.155,155.558Z" transform="translate(-192.819 -146.993)" fill="#1e546e"/>
        <path id="Caminho_153" data-name="Caminho 153" d="M195.155,154.722a1.893,1.893,0,0,0,2.528-.883,1.873,1.873,0,0,0,.141-.411,1.894,1.894,0,1,0,1.969-3.08,2.187,2.187,0,0,0-2.729-3.4,1.893,1.893,0,0,0-2.727,2.622,1.892,1.892,0,0,0-.448,3.559,1.977,1.977,0,0,0,.207.084A1.89,1.89,0,0,0,195.155,154.722Z" transform="translate(-192.819 -146.416)" fill="#0a8bc9"/>
        <path id="Caminho_154" data-name="Caminho 154" d="M197.123,150.663a32.282,32.282,0,0,1,3.638.2,1.847,1.847,0,0,0-.812-.513,2.187,2.187,0,0,0-2.729-3.4,1.893,1.893,0,0,0-2.727,2.622,1.882,1.882,0,0,0-1.448,1.349A31.708,31.708,0,0,1,197.123,150.663Z" transform="translate(-192.975 -146.416)" fill="#9aaaab" opacity="0.1" style="mix-blend-mode: screen;isolation: isolate"/>
      </g>
      <g id="Grupo_54" data-name="Grupo 54" transform="translate(0 5.774)">
        <path id="Caminho_155" data-name="Caminho 155" d="M143.533,167.312a2.453,2.453,0,0,0-3.564-1.815,3.074,3.074,0,0,0-6.034-.226,3.1,3.1,0,0,0-.776-.1,2.524,2.524,0,0,0-2.612,2.867C131.281,172.187,143.984,172.075,143.533,167.312Z" transform="translate(-130.51 -162.592)" fill="#205a75"/>
        <path id="Caminho_156" data-name="Caminho 156" d="M143.533,166.367a2.453,2.453,0,0,0-3.564-1.815,3.074,3.074,0,0,0-6.034-.226,3.1,3.1,0,0,0-.776-.1,2.524,2.524,0,0,0-2.612,2.867C131.281,171.242,143.984,171.131,143.533,166.367Z" transform="translate(-130.51 -161.941)" fill="#1981b3"/>
        <path id="Caminho_157" data-name="Caminho 157" d="M137,166.3a45.445,45.445,0,0,1,6.547.445,2.531,2.531,0,0,0-.006-.381,2.453,2.453,0,0,0-3.564-1.815,3.074,3.074,0,0,0-6.034-.226,3.1,3.1,0,0,0-.776-.1,2.552,2.552,0,0,0-2.645,2.513A45.649,45.649,0,0,1,137,166.3Z" transform="translate(-130.517 -161.941)" fill="#8a9899" opacity="0.1" style="mix-blend-mode: screen;isolation: isolate"/>
      </g>
    </g>
    <g id="Grupo_59" data-name="Grupo 59" transform="translate(6.214 15.409)">
      <g id="Grupo_56" data-name="Grupo 56" transform="translate(0)">
        <path id="Caminho_158" data-name="Caminho 158" d="M153.545,196.692a1.556,1.556,0,1,1-2.939-.912c.293-.943,2.376-2.464,2.376-2.464S153.838,195.749,153.545,196.692Z" transform="translate(-150.513 -193.205)" fill="#007dc4"/>
        <path id="Caminho_159" data-name="Caminho 159" d="M153.656,196.334a1.556,1.556,0,1,1-2.94-.912c.293-.943,2.376-2.464,2.376-2.464S153.949,195.391,153.656,196.334Z" transform="translate(-150.589 -192.958)" fill="#00a2ff"/>
        <path id="Caminho_160" data-name="Caminho 160" d="M152.758,195.494a8.383,8.383,0,0,1,1.4.574,10.221,10.221,0,0,0-.612-3.11,10.223,10.223,0,0,0-2.265,2.218A8.393,8.393,0,0,1,152.758,195.494Z" transform="translate(-151.042 -192.958)" fill="#7f8c8d" opacity="0.2" style="mix-blend-mode: screen;isolation: isolate"/>
      </g>
      <g id="Grupo_57" data-name="Grupo 57" transform="translate(12.543)">
        <path id="Caminho_161" data-name="Caminho 161" d="M193.922,196.692a1.556,1.556,0,1,1-2.939-.912c.293-.943,2.376-2.464,2.376-2.464S194.215,195.749,193.922,196.692Z" transform="translate(-190.89 -193.205)" fill="#007dc4"/>
        <path id="Caminho_162" data-name="Caminho 162" d="M194.033,196.334a1.556,1.556,0,1,1-2.94-.912c.293-.943,2.376-2.464,2.376-2.464S194.326,195.391,194.033,196.334Z" transform="translate(-190.966 -192.958)" fill="#00a2ff"/>
        <path id="Caminho_163" data-name="Caminho 163" d="M193.135,195.494a8.384,8.384,0,0,1,1.4.574,10.223,10.223,0,0,0-.612-3.11,10.224,10.224,0,0,0-2.265,2.218A8.392,8.392,0,0,1,193.135,195.494Z" transform="translate(-191.419 -192.958)" fill="#7f8c8d" opacity="0.2" style="mix-blend-mode: screen;isolation: isolate"/>
      </g>
      <g id="Grupo_58" data-name="Grupo 58" transform="translate(5.962 0.383)">
        <path id="Caminho_164" data-name="Caminho 164" d="M173.338,198.662a1.864,1.864,0,1,1-3.52-1.092c.35-1.13,2.845-2.951,2.845-2.951S173.688,197.532,173.338,198.662Z" transform="translate(-169.706 -194.486)" fill="#007dc4"/>
        <path id="Caminho_165" data-name="Caminho 165" d="M173.471,198.233a1.864,1.864,0,1,1-3.52-1.092c.35-1.13,2.845-2.951,2.845-2.951S173.821,197.1,173.471,198.233Z" transform="translate(-169.798 -194.19)" fill="#00a2ff"/>
        <path id="Caminho_166" data-name="Caminho 166" d="M172.4,197.228a10.035,10.035,0,0,1,1.675.687,12.246,12.246,0,0,0-.733-3.725,12.251,12.251,0,0,0-2.712,2.656A10.036,10.036,0,0,1,172.4,197.228Z" transform="translate(-170.339 -194.19)" fill="#7f8c8d" opacity="0.2" style="mix-blend-mode: screen;isolation: isolate"/>
      </g>
    </g>
  </g>
</svg>
