<svg xmlns="http://www.w3.org/2000/svg" width="32.292" height="37.118" viewBox="0 0 32.292 37.118">
  <g id="Grupo_19" data-name="Grupo 19" transform="translate(-303.549 -184.304)">
    <g id="Grupo_18" data-name="Grupo 18" transform="translate(303.549 184.304)">
      <path id="Caminho_71" data-name="Caminho 71" d="M333.607,184.3h-15a3.131,3.131,0,0,0-3.126,3.128v8.2a3.13,3.13,0,0,0,3.126,3.127h1.55v2.418a1.271,1.271,0,0,0,2.171.9l3.313-3.315h7.964a3.13,3.13,0,0,0,3.126-3.128v-8.2a3.13,3.13,0,0,0-3.126-3.128Zm0,0" transform="translate(-304.441 -184.304)" fill="#fff"/>
      <path id="Caminho_72" data-name="Caminho 72" d="M313.044,212.852a6.127,6.127,0,1,0-1.874,0,8.494,8.494,0,0,0-5.415,2.413,8.263,8.263,0,0,0-2.2,6.138,1.272,1.272,0,0,0,1.271,1.243h14.566a1.272,1.272,0,0,0,1.271-1.243,8.263,8.263,0,0,0-2.2-6.138,8.485,8.485,0,0,0-5.413-2.413Zm0,0" transform="translate(-303.549 -185.527)" fill="#fff"/>
    </g>
  </g>
</svg>
