<svg xmlns="http://www.w3.org/2000/svg" width="27.652" height="24.138" viewBox="0 0 27.652 24.138">
  <g id="Grupo_109" data-name="Grupo 109" transform="translate(-23 -319.688)">
    <g id="Grupo_103" data-name="Grupo 103" transform="translate(23 323.695)">
      <g id="Grupo_102" data-name="Grupo 102" transform="translate(0 0)">
        <g id="Grupo_101" data-name="Grupo 101">
          <path id="Caminho_188" data-name="Caminho 188" d="M-277.172,446.175h-12.234l-1.869,2.579h14.1Z" transform="translate(292.468 -444.688)" fill="#2d4245"/>
          <rect id="Retângulo_106" data-name="Retângulo 106" width="10.503" height="4.682" transform="translate(1.845 4.58)" fill="#7299a6"/>
          <g id="Grupo_70" data-name="Grupo 70" transform="translate(1.192 4.346)">
            <rect id="Retângulo_107" data-name="Retângulo 107" width="11.155" height="0.467" fill="#587a82"/>
          </g>
          <g id="Grupo_71" data-name="Grupo 71" transform="translate(1.192 4.066)">
            <rect id="Retângulo_108" data-name="Retângulo 108" width="11.155" height="0.28" fill="#b2ced8"/>
          </g>
          <rect id="Retângulo_109" data-name="Retângulo 109" width="4.065" height="10.808" transform="translate(22.934 7.234)" fill="#8fb6c7"/>
          <rect id="Retângulo_110" data-name="Retângulo 110" width="0.374" height="10.808" transform="translate(22.934 7.234)" fill="#79a2ae"/>
          <rect id="Retângulo_111" data-name="Retângulo 111" width="4.065" height="0.561" transform="translate(22.934 7.234)" fill="#79a2ae"/>
          <path id="Caminho_189" data-name="Caminho 189" d="M-221.576,446.175h10.48l3.623,5h-14.1Z" transform="translate(235.124 -444.688)" fill="#2d4245"/>
          <g id="Grupo_72" data-name="Grupo 72" transform="translate(21.9 6.767)">
            <rect id="Retângulo_112" data-name="Retângulo 112" width="5.752" height="0.467" fill="#587a82"/>
          </g>
          <g id="Grupo_73" data-name="Grupo 73" transform="translate(21.9 6.486)">
            <rect id="Retângulo_113" data-name="Retângulo 113" width="5.752" height="0.28" fill="#b2ced8"/>
          </g>
          <path id="Caminho_190" data-name="Caminho 190" d="M-247.161,441.958l-7.637,6.56V459.26h15.275V448.518Z" transform="translate(262.457 -441.218)" fill="#7299a6"/>
          <path id="Caminho_191" data-name="Caminho 191" d="M-247.161,441.958l-7.637,6.56v.935l7.637-6.56,7.637,6.56v-.935Z" transform="translate(262.457 -441.218)" fill="#668c94"/>
          <g id="Grupo_74" data-name="Grupo 74" transform="translate(6.854 0.431)">
            <path id="Caminho_192" data-name="Caminho 192" d="M-242.759,447.827l-8.138-6.99-8.138,6.99-.3-.354,8.442-7.251,8.443,7.251Z" transform="translate(259.34 -440.221)" fill="#587a82"/>
          </g>
          <path id="Caminho_193" data-name="Caminho 193" d="M-243.231,445.222l-8.656-7.434-8.656,7.434.213.248,8.442-7.251,8.443,7.251Z" transform="translate(267.183 -437.787)" fill="#b2ced8"/>
          <path id="Caminho_194" data-name="Caminho 194" d="M-285.62,454.692l-6.641,5.7v9.341h13.282V460.4Z" transform="translate(293.279 -451.696)" fill="#8fb6c7"/>
          <g id="Grupo_79" data-name="Grupo 79" transform="translate(3.201 9.282)">
            <path id="Caminho_195" data-name="Caminho 195" d="M-278.887,491.2v6.237h8.914V491.2Z" transform="translate(279.074 -491.017)" fill="#79a2ae"/>
            <g id="Grupo_78" data-name="Grupo 78">
              <rect id="Retângulo_114" data-name="Retângulo 114" width="8.914" height="6.237" fill="#fff"/>
              <rect id="Retângulo_115" data-name="Retângulo 115" width="8.354" height="5.676" transform="translate(0.28 0.28)" fill="#80d0e3"/>
              <path id="Caminho_196" data-name="Caminho 196" d="M-277.8,492.292h7.793v-.561h-8.354v5.676h.561Z" transform="translate(278.641 -491.451)" fill="#5ec1d2"/>
              <g id="Grupo_75" data-name="Grupo 75" transform="translate(0.786 0.28)">
                <path id="Caminho_197" data-name="Caminho 197" d="M-275.511,497.407h.838l1.856-5.676h-.838Z" transform="translate(275.511 -491.731)" fill="#a7e5ef"/>
                <path id="Caminho_198" data-name="Caminho 198" d="M-268.443,497.407h.339l1.856-5.676h-.339Z" transform="translate(269.695 -491.731)" fill="#a7e5ef"/>
                <path id="Caminho_199" data-name="Caminho 199" d="M-248.084,497.407h.526l1.856-5.676h-.526Z" transform="translate(252.946 -491.731)" fill="#a7e5ef"/>
                <path id="Caminho_200" data-name="Caminho 200" d="M-255.783,497.407h1.025l1.856-5.676h-1.025Z" transform="translate(259.28 -491.731)" fill="#a7e5ef"/>
              </g>
              <g id="Grupo_77" data-name="Grupo 77" transform="translate(0.786 0.28)">
                <g id="Grupo_76" data-name="Grupo 76">
                  <path id="Caminho_201" data-name="Caminho 201" d="M-265.238,492.292l.183-.561h-.838l-.183.561Z" transform="translate(267.749 -491.731)" fill="#7cd2db"/>
                  <path id="Caminho_202" data-name="Caminho 202" d="M-275.511,522.961h.056v-.17Z" transform="translate(275.511 -517.285)" fill="#7cd2db"/>
                </g>
                <path id="Caminho_203" data-name="Caminho 203" d="M-258.67,492.292l.183-.561h-.339l-.183.561Z" transform="translate(261.934 -491.731)" fill="#7cd2db"/>
                <path id="Caminho_204" data-name="Caminho 204" d="M-245.323,492.292l.183-.561h-1.025l-.183.561Z" transform="translate(251.518 -491.731)" fill="#7cd2db"/>
                <path id="Caminho_205" data-name="Caminho 205" d="M-238.125,492.292l.183-.561h-.526l-.183.561Z" transform="translate(245.185 -491.731)" fill="#7cd2db"/>
              </g>
              <path id="Caminho_206" data-name="Caminho 206" d="M-271.174,492.21v-.28h-2.732v-.83h-.28v.83h-2.6v-.83h-.28v.83h-2.878v.28h2.878v1.749h-2.878v.28h2.878V497.1h.28V494.24h2.6V497.1h.28V494.24h2.732v-.28h-2.732V492.21Zm-3.012,1.749h-2.6V492.21h2.6Z" transform="translate(279.942 -490.932)" fill="#fff"/>
            </g>
          </g>
          <g id="Grupo_80" data-name="Grupo 80" transform="translate(1.017 16.646)">
            <rect id="Retângulo_116" data-name="Retângulo 116" width="13.282" height="1.394" fill="#688d9a"/>
            <rect id="Retângulo_117" data-name="Retângulo 117" width="13.282" height="0.148" fill="#587a82"/>
            <rect id="Retângulo_118" data-name="Retângulo 118" width="0.374" height="0.148" fill="#48676e"/>
            <rect id="Retângulo_119" data-name="Retângulo 119" width="0.374" height="1.249" transform="translate(0 0.148)" fill="#587a82"/>
          </g>
          <g id="Grupo_81" data-name="Grupo 81" transform="translate(22.934 16.646)">
            <rect id="Retângulo_120" data-name="Retângulo 120" width="4.065" height="1.394" fill="#688d9a"/>
            <rect id="Retângulo_121" data-name="Retângulo 121" width="4.065" height="0.148" fill="#587a82"/>
            <rect id="Retângulo_122" data-name="Retângulo 122" width="0.374" height="0.148" fill="#48676e"/>
            <rect id="Retângulo_123" data-name="Retângulo 123" width="0.374" height="1.246" transform="translate(0 0.148)" fill="#587a82"/>
          </g>
          <path id="Caminho_207" data-name="Caminho 207" d="M-157.185,496.427v5.163h2.036v-5.163Z" transform="translate(182.148 -486.032)" fill="#79a2ae"/>
          <g id="Grupo_85" data-name="Grupo 85" transform="translate(24.776 10.208)">
            <rect id="Retângulo_124" data-name="Retângulo 124" width="2.223" height="5.163" fill="#fff"/>
            <rect id="Retângulo_125" data-name="Retângulo 125" width="1.943" height="4.602" transform="translate(0.28 0.28)" fill="#80d0e3"/>
            <path id="Caminho_208" data-name="Caminho 208" d="M-156.284,497.329h1.569v-.374h-1.943v4.6h.374Z" transform="translate(156.938 -496.675)" fill="#5ec1d2"/>
            <g id="Grupo_82" data-name="Grupo 82" transform="translate(0.28 0.28)">
              <path id="Caminho_209" data-name="Caminho 209" d="M-154.715,497.28v-.325h-.683l-1.26,3.854v.748h.544Z" transform="translate(156.657 -496.955)" fill="#a7e5ef"/>
              <path id="Caminho_210" data-name="Caminho 210" d="M-151.067,508.6l.69-2.109v-.975l-1.008,3.084Z" transform="translate(152.321 -503.999)" fill="#a7e5ef"/>
            </g>
            <g id="Grupo_84" data-name="Grupo 84" transform="translate(0.28 0.28)">
              <g id="Grupo_83" data-name="Grupo 83">
                <path id="Caminho_211" data-name="Caminho 211" d="M-156.657,513.388v.748h.374v-1.892Z" transform="translate(156.657 -509.534)" fill="#7cd2db"/>
                <path id="Caminho_212" data-name="Caminho 212" d="M-150.117,496.955l-.122.374h.789l.016-.049v-.325Z" transform="translate(151.377 -496.955)" fill="#7cd2db"/>
              </g>
            </g>
            <rect id="Retângulo_126" data-name="Retângulo 126" width="2.075" height="0.28" transform="translate(0.149 1.591)" fill="#fff"/>
          </g>
          <g id="Grupo_86" data-name="Grupo 86" transform="translate(1.017 2.997)">
            <path id="Caminho_213" data-name="Caminho 213" d="M-285.62,454.692l-6.641,5.7v.935l6.641-5.7,6.641,5.7V460.4Z" transform="translate(292.261 -454.692)" fill="#79a2ae"/>
            <rect id="Retângulo_127" data-name="Retângulo 127" width="0.374" height="7.55" transform="translate(0 6.099)" fill="#79a2ae"/>
          </g>
          <rect id="Retângulo_128" data-name="Retângulo 128" width="0.374" height="9.142" transform="translate(14.3 8.898)" fill="#668c94"/>
          <g id="Grupo_87" data-name="Grupo 87" transform="translate(0.212 2.7)">
            <path id="Caminho_214" data-name="Caminho 214" d="M-282.215,459.768l-7.142-6.134-7.142,6.134-.3-.354,7.446-6.4,7.446,6.4Z" transform="translate(296.802 -453.018)" fill="#587a82"/>
          </g>
          <path id="Caminho_215" data-name="Caminho 215" d="M-290.342,450.593-298,457.171l.213.247,7.446-6.4,7.446,6.4.213-.247Z" transform="translate(298.001 -448.323)" fill="#b2ced8"/>
          <g id="Grupo_88" data-name="Grupo 88" transform="translate(14.3 16.646)">
            <rect id="Retângulo_129" data-name="Retângulo 129" width="8.634" height="1.394" fill="#466971"/>
            <rect id="Retângulo_130" data-name="Retângulo 130" width="0.374" height="1.394" fill="#3c5e63"/>
            <rect id="Retângulo_131" data-name="Retângulo 131" width="8.634" height="0.148" fill="#3c5e63"/>
            <rect id="Retângulo_132" data-name="Retângulo 132" width="0.374" height="0.148" transform="translate(0)" fill="#2d4d50"/>
            <rect id="Retângulo_133" data-name="Retângulo 133" width="0.187" height="0.148" transform="translate(6.469)" fill="#2d4d50"/>
            <rect id="Retângulo_134" data-name="Retângulo 134" width="0.187" height="1.246" transform="translate(6.469 0.148)" fill="#3c5e63"/>
          </g>
          <path id="Caminho_216" data-name="Caminho 216" d="M-202.249,503.351v5.023h3.981v-5.023Z" transform="translate(219.223 -491.728)" fill="#668c94"/>
          <rect id="Retângulo_135" data-name="Retângulo 135" width="3.981" height="1.723" transform="translate(16.974 8.505)" fill="#668c94"/>
          <g id="Grupo_91" data-name="Grupo 91" transform="translate(16.787 8.318)">
            <rect id="Retângulo_136" data-name="Retângulo 136" width="3.981" height="1.723" fill="#fff"/>
            <rect id="Retângulo_137" data-name="Retângulo 137" width="3.421" height="1.162" transform="translate(0.28 0.28)" fill="#80d0e3"/>
            <path id="Caminho_217" data-name="Caminho 217" d="M-201.348,486.664h3.047v-.374h-3.421v1.162h.374Z" transform="translate(202.002 -486.01)" fill="#5ec1d2"/>
            <g id="Grupo_89" data-name="Grupo 89" transform="translate(1.144 0.28)">
              <path id="Caminho_218" data-name="Caminho 218" d="M-196.063,487.453l.38-1.162h-.789l-.38,1.162Z" transform="translate(196.852 -486.29)" fill="#a7e5ef"/>
              <path id="Caminho_219" data-name="Caminho 219" d="M-189.882,487.453l.38-1.162h-.319l-.38,1.162Z" transform="translate(191.38 -486.29)" fill="#a7e5ef"/>
            </g>
            <g id="Grupo_90" data-name="Grupo 90" transform="translate(1.401 0.28)">
              <path id="Caminho_220" data-name="Caminho 220" d="M-194.609,486.664l.122-.374h-.789l-.122.374Z" transform="translate(195.398 -486.29)" fill="#7cd2db"/>
              <path id="Caminho_221" data-name="Caminho 221" d="M-188.428,486.664l.122-.374h-.319l-.122.374Z" transform="translate(189.926 -486.29)" fill="#7cd2db"/>
            </g>
            <rect id="Retângulo_138" data-name="Retângulo 138" width="0.28" height="1.521" transform="translate(1.833 0.101)" fill="#fff"/>
          </g>
          <path id="Caminho_222" data-name="Caminho 222" d="M-217.364,458.7a1.47,1.47,0,0,0-1.47,1.47,1.47,1.47,0,0,0,1.47,1.47,1.47,1.47,0,0,0,1.47-1.47A1.47,1.47,0,0,0-217.364,458.7Z" transform="translate(232.868 -454.995)" fill="#668c94"/>
          <g id="Grupo_95" data-name="Grupo 95" transform="translate(13.549 3.222)">
            <circle id="Elipse_12" data-name="Elipse 12" cx="1.47" cy="1.47" r="1.47" transform="translate(0 2.861) rotate(-76.718)" fill="#fff"/>
            <circle id="Elipse_13" data-name="Elipse 13" cx="1.19" cy="1.19" r="1.19" transform="translate(0.214 1.125) rotate(-22.5)" fill="#80d0e3"/>
            <path id="Caminho_223" data-name="Caminho 223" d="M-218.027,460.606a1.19,1.19,0,0,1,1.19-1.189,1.182,1.182,0,0,1,.508.115,1.184,1.184,0,0,0-.788-.3,1.19,1.19,0,0,0-1.19,1.19,1.188,1.188,0,0,0,.682,1.075A1.185,1.185,0,0,1-218.027,460.606Z" transform="translate(218.886 -458.652)" fill="#5ec1d2"/>
            <g id="Grupo_92" data-name="Grupo 92" transform="translate(0.82 0.579)">
              <path id="Caminho_224" data-name="Caminho 224" d="M-212.812,459.612l-.739,2.26a1.19,1.19,0,0,0,.347.052,1.185,1.185,0,0,0,.455-.091l.561-1.716A1.192,1.192,0,0,0-212.812,459.612Z" transform="translate(214.153 -459.545)" fill="#a7e5ef"/>
              <path id="Caminho_225" data-name="Caminho 225" d="M-216.338,459.283l-.607,1.856a1.191,1.191,0,0,0,.241.238l.7-2.144A1.182,1.182,0,0,0-216.338,459.283Z" transform="translate(216.945 -459.233)" fill="#a7e5ef"/>
            </g>
            <g id="Grupo_94" data-name="Grupo 94" transform="translate(0.821 0.579)">
              <g id="Grupo_93" data-name="Grupo 93">
                <path id="Caminho_226" data-name="Caminho 226" d="M-213.96,459.245l-.029,0a1.181,1.181,0,0,0-.149.033h0l-.132.4a1.188,1.188,0,0,1,.388-.212l.079-.243A1.146,1.146,0,0,0-213.96,459.245Z" transform="translate(214.743 -459.233)" fill="#7cd2db"/>
                <path id="Caminho_227" data-name="Caminho 227" d="M-216.94,468.88l.019.025c.021.026.043.051.066.076s.032.034.05.05.046.041.071.061l.035.027.024-.072a1.18,1.18,0,0,1-.188-.4Z" transform="translate(216.94 -466.977)" fill="#7cd2db"/>
              </g>
              <path id="Caminho_228" data-name="Caminho 228" d="M-209.2,459.822l-.02-.016a1.175,1.175,0,0,0-.151-.1l-.016-.009a1.185,1.185,0,0,0-.176-.079h0l-.04.121a1.187,1.187,0,0,1,.427.107C-209.188,459.836-209.194,459.829-209.2,459.822Z" transform="translate(210.908 -459.546)" fill="#7cd2db"/>
            </g>
            <rect id="Retângulo_139" data-name="Retângulo 139" width="0.28" height="2.657" transform="translate(0.456 1.909) rotate(-90)" fill="#fff"/>
          </g>
          <g id="Grupo_100" data-name="Grupo 100" transform="translate(16.787 11.436)">
            <rect id="Retângulo_140" data-name="Retângulo 140" width="3.981" height="6.604" fill="#fff"/>
            <rect id="Retângulo_141" data-name="Retângulo 141" width="3.421" height="6.323" transform="translate(0.28 0.28)" fill="#80d0e3"/>
            <path id="Caminho_229" data-name="Caminho 229" d="M-201.161,504.439h2.86v-.561h-3.421V510.2h.561Z" transform="translate(202.002 -503.598)" fill="#5ec1d2"/>
            <g id="Grupo_96" data-name="Grupo 96" transform="translate(0.28 0.28)">
              <path id="Caminho_230" data-name="Caminho 230" d="M-199.309,510.2h.789l2.067-6.323h-.789Z" transform="translate(199.737 -503.878)" fill="#a7e5ef"/>
              <path id="Caminho_231" data-name="Caminho 231" d="M-200,503.878l-1.725,5.276V510.2h.073l2.067-6.323Z" transform="translate(201.722 -503.878)" fill="#a7e5ef"/>
              <path id="Caminho_232" data-name="Caminho 232" d="M-190.845,509.227v-.975l-1.814,5.548h.319Z" transform="translate(194.265 -507.476)" fill="#a7e5ef"/>
            </g>
            <g id="Grupo_99" data-name="Grupo 99" transform="translate(0.28 0.28)">
              <g id="Grupo_97" data-name="Grupo 97">
                <path id="Caminho_233" data-name="Caminho 233" d="M-192.611,504.439l.183-.561h-.415l-.183.561Z" transform="translate(194.567 -503.878)" fill="#7cd2db"/>
                <path id="Caminho_234" data-name="Caminho 234" d="M-201.161,523.965l-.561,1.715v1.047h.073l.488-1.493Z" transform="translate(201.722 -520.404)" fill="#7cd2db"/>
              </g>
              <g id="Grupo_98" data-name="Grupo 98" transform="translate(0.428)">
                <path id="Caminho_235" data-name="Caminho 235" d="M-187.893,504.439l.183-.561h-.789l-.183.561Z" transform="translate(190.566 -503.878)" fill="#7cd2db"/>
                <path id="Caminho_236" data-name="Caminho 236" d="M-199.309,537.66h.133v-.407Z" transform="translate(199.309 -531.336)" fill="#7cd2db"/>
              </g>
            </g>
            <rect id="Retângulo_142" data-name="Retângulo 142" width="0.28" height="3.739" transform="translate(0.094 1.343) rotate(-90)" fill="#fff"/>
            <rect id="Retângulo_143" data-name="Retângulo 143" width="0.122" height="1.553" transform="translate(3.101 3.159)" fill="#fff"/>
          </g>
        </g>
      </g>
    </g>
    <g id="Grupo_105" data-name="Grupo 105" transform="translate(30.877 319.688)">
      <path id="Caminho_237" data-name="Caminho 237" d="M-182.79,396.25l-11,10.985,4.813,3.985-5.287,9.168,11.5-8.848-.2-.2-4.613-4.253Z" transform="translate(194.259 -396.25)" fill="#e69100"/>
      <path id="Caminho_238" data-name="Caminho 238" d="M-182.034,396.25l-10.8,10.8,0-.007,4.618,3.824-4.977,8.987,11-8.508-4.615-4.616Z" transform="translate(193.504 -396.25)" fill="#fb0"/>
      <g id="Grupo_104" data-name="Grupo 104" transform="translate(0.669)" opacity="0.2" style="mix-blend-mode: screen;isolation: isolate">
        <path id="Caminho_239" data-name="Caminho 239" d="M-186.723,408.552a26.738,26.738,0,0,1,2.774.147l-1.97-1.971,4.777-10.478-10.8,10.8,2.043,1.692A27.239,27.239,0,0,1-186.723,408.552Z" transform="translate(191.943 -396.25)" fill="#fb0"/>
        <path id="Caminho_240" data-name="Caminho 240" d="M-191.954,433.4l0,0-.005-.005Z" transform="translate(191.956 -422.598)" fill="#fb0"/>
      </g>
    </g>
    <g id="Grupo_108" data-name="Grupo 108" transform="translate(31.897 326.653)">
      <g id="Grupo_107" data-name="Grupo 107" transform="translate(0 0)">
        <g id="Grupo_106" data-name="Grupo 106">
          <path id="Caminho_241" data-name="Caminho 241" d="M-144.935,418.749a1.613,1.613,0,0,1-.109.441l-3.231,4,3.267,4.1a.961.961,0,0,1,.073.41,1.08,1.08,0,0,1-1.162,1.009,1.073,1.073,0,0,1-.944-.5l.036.063-2.614-3.342L-152.2,428.3a1.273,1.273,0,0,1-.944.41,1.127,1.127,0,0,1-1.234-.977.954.954,0,0,1,.145-.441l3.268-4.1c-1.017-1.261-2.251-2.743-3.231-4a.858.858,0,0,1-.182-.41,1.173,1.173,0,0,1,1.234-1.041,1.249,1.249,0,0,1,.944.441l2.578,3.311,2.614-3.311-.036.063a1.073,1.073,0,0,1,.944-.5A1.079,1.079,0,0,1-144.935,418.749Z" transform="translate(154.374 -417.74)" fill="#f83132"/>
        </g>
      </g>
    </g>
  </g>
</svg>
