<svg xmlns="http://www.w3.org/2000/svg" width="36.458" height="36.458" viewBox="0 0 36.458 36.458">
  <path id="Caminho_70" data-name="Caminho 70" d="M47.56-659.555H17.308a3.1,3.1,0,0,0-3.1,3.1V-626.2a3.1,3.1,0,0,0,3.1,3.1H47.56a3.1,3.1,0,0,0,3.1-3.1v-30.251A3.1,3.1,0,0,0,47.56-659.555Zm-4.837,27.193a.228.228,0,0,1-.228.228H22.373a.228.228,0,0,1-.228-.228v-.815a.228.228,0,0,1,.228-.228H42.5a.228.228,0,0,1,.228.228Zm0-8.615a.228.228,0,0,1-.228.228H22.373a.227.227,0,0,1-.228-.228v-.815a.228.228,0,0,1,.228-.228H42.5a.228.228,0,0,1,.228.228Zm0-8.5a.228.228,0,0,1-.228.228H22.373a.227.227,0,0,1-.228-.228v-.815a.227.227,0,0,1,.228-.228H42.5a.228.228,0,0,1,.228.228Z" transform="translate(-14.205 659.555)" fill="#fff"/>
</svg>
