<svg xmlns="http://www.w3.org/2000/svg" width="9.5" height="13.722" viewBox="0 0 9.5 13.722">
  <path id="Caminho_251" data-name="Caminho 251" d="M1094.845,659.122h7.809a.885.885,0,0,0,.846-.921v-4.281a.885.885,0,0,0-.846-.921h-7.809a.885.885,0,0,0-.845.921v10.825a.886.886,0,0,0,.83.919.446.446,0,0,0-.055.213v.421a.407.407,0,0,0,.388.423h.387a.407.407,0,0,0,.388-.423v-.421a.447.447,0,0,0-.054-.212h5.73a.449.449,0,0,0-.054.212v.421a.407.407,0,0,0,.388.423h.387a.407.407,0,0,0,.388-.423v-.421a.448.448,0,0,0-.055-.213.886.886,0,0,0,.83-.919v-4.281a.885.885,0,0,0-.846-.921h-7.809c-.023,0-.045.005-.068.007v-.437C1094.8,659.117,1094.822,659.122,1094.845,659.122Zm6.716-2.217a.292.292,0,1,1,.582,0v.844a.292.292,0,1,1-.582,0Zm0,4.011a.292.292,0,1,1,.582,0v.844a.292.292,0,1,1-.582,0Z" transform="translate(-1094 -653)" fill="#fc8a1f"/>
</svg>
