<svg xmlns="http://www.w3.org/2000/svg" width="32" height="35.439" viewBox="0 0 32 35.439">
  <g id="Grupo_16" data-name="Grupo 16" transform="translate(228.094 306.204)">
    <path id="Caminho_67" data-name="Caminho 67" d="M-163.782-306.2h-15.157a.62.62,0,0,0-.62.62c0,2.694,1.08,6.635,2.888,8.566a.62.62,0,0,0,.452.2h9.717a.62.62,0,0,0,.453-.2c1.807-1.932,2.887-5.872,2.887-8.566A.62.62,0,0,0-163.782-306.2Z" transform="translate(-40.798)" fill="#fff"/>
    <g id="Grupo_15" data-name="Grupo 15" transform="translate(-228.094 -295.697)">
      <path id="Caminho_68" data-name="Caminho 68" d="M-143.541-201.752c-.137-.073-.431-.19-.742-.313a14.828,14.828,0,0,1-2.408-1.139,1.768,1.768,0,0,1-.834-1.9,1.639,1.639,0,0,1,1.572-1.177,9.079,9.079,0,0,1,2.679.363l.2-.9a10.159,10.159,0,0,0-2.011-.358.62.62,0,0,1-.571-.618v-1.045h-.659v1.279a.62.62,0,0,1-.491.606c-1.936.41-2.746,1.373-2.551,3.031.153,1.3,2.107,2.2,3.119,2.485.845.242,2.418.692,2.046,2.344-.318,1.408-2.36,1.521-3.656,1.254a7.781,7.781,0,0,1-1.349-.419l-.341,1.055a9.137,9.137,0,0,0,2.665.563.62.62,0,0,1,.588.619v1.191h.656l-.007-1.344a.62.62,0,0,1,.568-.621,2.877,2.877,0,0,0,2.6-2.556A2.312,2.312,0,0,0-143.541-201.752Z" transform="translate(162.059 213.851)" fill="#fff"/>
      <path id="Caminho_69" data-name="Caminho 69" d="M-206.193-240.249a.623.623,0,0,0-.229-.044h-11.344a.619.619,0,0,0-.229.044c-6.041,2.4-10.1,10.965-10.1,17.459,0,2.549.6,4.369,1.84,5.563,1.6,1.544,4.086,1.867,7.045,1.866,1.024,0,2.106-.039,3.226-.079,1.253-.045,2.549-.091,3.89-.091,1.041,0,2.06.02,3.045.039,4.693.093,8.747.173,11.044-2.079,1.286-1.261,1.911-3.14,1.911-5.745C-196.094-229.53-199.955-237.771-206.193-240.249Zm-1.075,14.575a4.116,4.116,0,0,1-3.16,3.582l.007,1.44a.618.618,0,0,1-.18.44.62.62,0,0,1-.439.183h-1.9a.62.62,0,0,1-.62-.62V-221.9a8.2,8.2,0,0,1-3.091-.91.62.62,0,0,1-.263-.717l.716-2.22a.621.621,0,0,1,.359-.385.619.619,0,0,1,.525.03,7.1,7.1,0,0,0,1.68.6c1.046.215,2.125.006,2.2-.313.066-.3.115-.51-1.177-.879-.621-.178-3.733-1.182-4.009-3.532-.252-2.139.822-3.639,3.034-4.268V-235.9a.62.62,0,0,1,.62-.62h1.9a.62.62,0,0,1,.62.62v1.106a6.67,6.67,0,0,1,2.392.656.62.62,0,0,1,.271.658l-.458,2.04a.62.62,0,0,1-.3.4.621.621,0,0,1-.5.048,9.654,9.654,0,0,0-2.857-.5c-.15.01-.408.056-.457.246a.554.554,0,0,0,.3.546,13.909,13.909,0,0,0,2.2,1.032c.372.148.667.265.864.37A3.537,3.537,0,0,1-207.268-225.674Z" transform="translate(228.094 240.293)" fill="#fff"/>
    </g>
  </g>
</svg>
