<svg xmlns="http://www.w3.org/2000/svg" width="171.441" height="171.62" viewBox="0 0 171.441 171.62">
  <g id="Grupo_114" data-name="Grupo 114" transform="translate(-102.146 -845)">
    <path id="Caminho_43" data-name="Caminho 43" d="M1785.364,132.608l81.571-26.651a85.815,85.815,0,0,0-81.325-59.163Z" transform="translate(-1597.552 798.207)" fill="#5ac33a"/>
    <path id="Caminho_44" data-name="Caminho 44" d="M1785.366,132.6l-50.24,69.571a85.875,85.875,0,0,0,76.69,12.065c44.785-14.51,69.7-63.3,55.187-108.087Z" transform="translate(-1597.552 798.207)" fill="#fc8a1f"/>
    <path id="Caminho_45" data-name="Caminho 45" d="M1785.364,132.612l.145-85.814a85.875,85.875,0,0,0-69.3,35c-27.876,37.935-19.6,92.09,18.336,119.967Z" transform="translate(-1597.552 798.207)" fill="#24b1e2"/>
    <text id="_20_" data-name="20%" transform="translate(207 894)" fill="#fff" font-size="16" font-family="Nunito-Black, Nunito" font-weight="800" letter-spacing="-0.04em"><tspan x="0" y="0">20%</tspan></text>
    <text id="_40_" data-name="40%" transform="translate(193 974)" fill="#fff" font-size="16" font-family="Nunito-Black, Nunito" font-weight="800" letter-spacing="-0.04em"><tspan x="0" y="0">40%</tspan></text>
    <text id="_40_2" data-name="40%" transform="translate(134 927)" fill="#fff" font-size="16" font-family="Nunito-Black, Nunito" font-weight="800" letter-spacing="-0.04em"><tspan x="0" y="0">40%</tspan></text>
  </g>
</svg>
