<svg xmlns="http://www.w3.org/2000/svg" width="17.644" height="11.527" viewBox="0 0 17.644 11.527">
  <path id="Caminho_252" data-name="Caminho 252" d="M1103.12,763h-16.6a.523.523,0,0,0-.523.523v8.834a.523.523,0,0,0,.523.523h6.783a.29.29,0,0,0-.014.069v.8a.29.29,0,0,0,.014.069h-.787a.168.168,0,0,0-.168.168v.369a.168.168,0,0,0,.168.168h4.6a.168.168,0,0,0,.168-.168v-.369a.168.168,0,0,0-.168-.168h-.787a.3.3,0,0,0,.014-.069v-.8a.3.3,0,0,0-.014-.069h6.783a.523.523,0,0,0,.523-.523v-8.834A.523.523,0,0,0,1103.12,763Zm-.418,8.654a.286.286,0,0,1-.286.286h-15.19a.286.286,0,0,1-.286-.286v-7.427a.286.286,0,0,1,.286-.286h15.19a.286.286,0,0,1,.286.286Z" transform="translate(-1086 -763)" fill="#5ac33a"/>
</svg>
